<?xml version="1.0" encoding="utf-8"?>
<!-- Generator: Adobe Illustrator 16.0.0, SVG Export Plug-In . SVG Version: 6.00 Build 0)  -->
<!DOCTYPE svg PUBLIC "-//W3C//DTD SVG 1.1//EN" "http://www.w3.org/Graphics/SVG/1.1/DTD/svg11.dtd">
<svg version="1.1" id="Calque_1" xmlns="http://www.w3.org/2000/svg" xmlns:xlink="http://www.w3.org/1999/xlink" x="0px" y="0px"
	 width="500px" height="500px" viewBox="0 0 500 500" enable-background="new 0 0 500 500" xml:space="preserve">
<g id="Calque_1_1_">
	<g id="XMLID_2_">
		<g>
			<polygon fill="#161A21" points="170.977,224.61 93.702,269.273 16.427,224.61 16.427,135.284 93.702,90.621 170.977,135.284 			
				"/>
		</g>
	</g>
	<polygon fill="#161A21" points="95.823,271.396 173.098,226.732 250.373,271.396 250.373,360.722 173.098,405.385 95.823,360.722 	
		"/>
	<polygon fill="#161A21" points="175.225,135.278 252.499,90.615 329.774,135.278 329.774,224.605 252.499,269.269 175.225,224.605 
			"/>
	<polygon fill="#161A21" points="334.028,135.278 411.302,90.615 488.577,135.278 488.577,224.605 411.302,269.269 334.028,224.605 
			"/>
	<polygon fill="#161A21" points="254.626,271.396 331.901,226.732 409.175,271.396 409.175,360.722 331.901,405.385 
		254.626,360.722 	"/>
</g>
<g id="Calque_2">
	<g>
		<g id="XMLID_9_">
			<g>
				
					<linearGradient id="SVGID_1_" gradientUnits="userSpaceOnUse" x1="418.762" y1="145.2827" x2="495.1729" y2="145.2827" gradientTransform="matrix(1 0 0 -1 -47.6001 330.0098)">
					<stop  offset="0" style="stop-color:#8EF208"/>
					<stop  offset="1" style="stop-color:#8EF208"/>
				</linearGradient>
				<path fill="url(#SVGID_1_)" d="M438.386,182.899l3.154-14.339h7.042l-8.913,32.333h-6.642l-3.376-13.135
					c-0.869-3.399-1.515-6.44-2.15-10.373h-0.122c-0.58,3.988-1.337,7.175-2.151,10.373l-3.609,13.135h-6.696l-8.39-32.333h7.341
					l2.965,14.674c0.646,3.465,1.281,6.975,1.805,10.506h0.123c0.578-3.531,1.515-7.119,2.327-10.428l3.667-14.751h5.826
					l3.555,14.339c0.868,3.8,1.627,7.31,2.273,10.841h0.11C436.993,190.209,437.627,186.699,438.386,182.899z"/>
				<path fill="#161A21" d="M433.026,200.892h6.643l8.912-32.333h-7.041l-3.154,14.339c-0.758,3.8-1.392,7.31-1.861,10.841h-0.112
					c-0.644-3.531-1.402-7.041-2.272-10.841l-3.554-14.339h-5.827l-3.666,14.751c-0.813,3.308-1.748,6.897-2.328,10.428h-0.123
					c-0.523-3.531-1.159-7.041-1.804-10.506l-2.965-14.673h-7.342l8.39,32.333h6.696l3.61-13.135
					c0.813-3.198,1.569-6.385,2.151-10.374h0.122c0.634,3.934,1.279,6.975,2.15,10.374L433.026,200.892z M459.121,228.414h-99.896
					V131.47h99.896V228.414z M371.092,156.751v44.01c2.406,0.334,5.646,0.601,9.971,0.601c7.878,0,14.317-2.062,18.34-6.105
					c3.844-3.855,6.306-9.837,6.306-17.793c0-7.644-2.396-12.946-6.306-16.479c-3.722-3.454-8.959-5.181-16.534-5.181
					C378.489,155.804,374.333,156.148,371.092,156.751z"/>
				<path fill="#161A21" d="M378.489,194.653v-32.01c1.014-0.256,2.696-0.456,5.049-0.456c9.256,0,14.417,5.638,14.361,15.542
					c0,11.354-5.704,17.204-15.332,17.135C381.063,194.865,379.502,194.865,378.489,194.653z"/>
				
					<linearGradient id="SVGID_2_" gradientUnits="userSpaceOnUse" x1="418.761" y1="151.4287" x2="495.1725" y2="151.4287" gradientTransform="matrix(1 0 0 -1 -47.6001 330.0098)">
					<stop  offset="0" style="stop-color:#8EF208"/>
					<stop  offset="1" style="stop-color:#83E605"/>
				</linearGradient>
				<path fill="url(#SVGID_2_)" d="M371.092,200.759v-44.01c3.241-0.602,7.398-0.947,11.776-0.947
					c7.575,0,12.813,1.727,16.534,5.181c3.91,3.532,6.306,8.835,6.306,16.479c0,7.954-2.462,13.938-6.306,17.792
					c-4.022,4.045-10.462,6.106-18.34,6.106C376.739,201.36,373.498,201.094,371.092,200.759z M378.489,162.643v32.01
					c1.014,0.211,2.573,0.211,4.078,0.211c9.626,0.067,15.332-5.782,15.332-17.135c0.056-9.905-5.105-15.542-14.361-15.542
					C381.186,162.187,379.502,162.388,378.489,162.643z"/>
			</g>
		</g>
	</g>
	<g>
		<g id="XMLID_8_">
			<g>
				<path fill="#161A21" d="M387.263,367.723H280.792V264.389h106.471V367.723z M335.031,316.181
					c2.755-2.601,4.192-6.425,4.192-11.057c0-4.563-1.875-8.385-4.761-10.771c-3.112-2.614-7.887-3.98-14.395-3.98
					c-5.995,0-10.415,0.428-13.599,1.009v48.088h8.826v-18.359c1.151,0.212,2.672,0.297,4.335,0.297
					C325.923,321.406,331.492,319.731,335.031,316.181z M345.672,339.47h8.885v-18.218c0-1.023,0.154-1.959,0.296-2.754
					c0.798-3.979,3.682-6.724,7.958-6.724c1.081,0,1.874,0.144,2.602,0.285v-8.383c-0.728-0.133-1.235-0.215-2.104-0.215
					c-3.751,0-7.873,2.53-9.619,7.519h-0.284l-0.285-6.722h-7.743c0.212,3.195,0.297,6.579,0.297,11.354v23.857H345.672z"/>
				<path fill="#D13FFA" d="M353.689,310.979c1.746-4.99,5.868-7.519,9.619-7.519c0.868,0,1.377,0.083,2.103,0.213v8.386
					c-0.727-0.145-1.52-0.285-2.602-0.285c-4.277,0-7.162,2.744-7.957,6.721c-0.142,0.798-0.297,1.733-0.297,2.756v18.218h-8.884
					v-23.859c0-4.773-0.084-8.158-0.296-11.354h7.742l0.284,6.723L353.689,310.979L353.689,310.979z"/>
				<path fill="#161A21" d="M330.339,305.479c0,5.713-4.049,8.967-10.712,8.967c-1.806,0-3.254-0.061-4.335-0.356v-16.483
					c0.938-0.226,2.672-0.441,5.129-0.441C326.575,297.166,330.339,300.077,330.339,305.479z"/>
				<path fill="#D13FFA" d="M319.629,314.446c6.661,0,10.711-3.254,10.711-8.967c0-5.402-3.764-8.313-9.917-8.313
					c-2.456,0-4.189,0.215-5.128,0.44v16.485C316.375,314.386,317.822,314.446,319.629,314.446z M339.223,305.124
					c0,4.632-1.438,8.456-4.192,11.057c-3.538,3.551-9.107,5.226-15.401,5.226c-1.663,0-3.184-0.083-4.336-0.297v18.36h-8.825
					v-48.086c3.183-0.581,7.602-1.011,13.599-1.011c6.509,0,11.282,1.368,14.395,3.979
					C337.348,296.739,339.223,300.562,339.223,305.124z"/>
			</g>
		</g>
	</g>
	<g>
		<g id="XMLID_7_">
			<g>
				<path fill="#161A21" d="M223.027,369.647H118.915V268.601h104.112V369.647L223.027,369.647z M176.795,306.728
					c-7.409,0-13.866,6.711-13.795,18c0,10.381,5.818,17.232,13.169,17.232c4.506,0,8.233-2.357,10.079-6.097h0.117l0.314,5.332
					h6.979c-0.14-2.287-0.256-6.018-0.256-9.478v-39.672h-7.804v19.104h-0.117C184.088,308.666,181.057,306.728,176.795,306.728z
					 M147.82,341.195h8.502v-46.648h-8.502V341.195z"/>
				<path fill="#161A21" d="M185.343,329.082c-0.744,3.67-3.531,6.029-6.7,6.029c-4.937,0-7.735-4.507-7.735-10.662
					c0-6.306,2.798-11.149,7.793-11.149c3.542,0,6.015,2.706,6.722,6.029c0.117,0.684,0.175,1.521,0.175,2.217v5.053
					C185.597,327.49,185.539,328.326,185.343,329.082z"/>
				
					<linearGradient id="SVGID_3_" gradientUnits="userSpaceOnUse" x1="195.3362" y1="13.0039" x2="241.3878" y2="13.0039" gradientTransform="matrix(1 0 0 -1 -47.6001 330.0098)">
					<stop  offset="0" style="stop-color:#E33594"/>
					<stop  offset="1" style="stop-color:#E33594"/>
				</linearGradient>
				<path fill="url(#SVGID_3_)" d="M186.248,335.864c-1.846,3.741-5.574,6.099-10.079,6.099c-7.353,0-13.169-6.852-13.169-17.233
					c-0.069-11.288,6.387-18.001,13.795-18.001c4.262,0,7.294,1.938,8.686,4.424h0.117v-19.104h7.804v39.671
					c0,3.461,0.116,7.189,0.256,9.479h-6.979l-0.314-5.332h-0.117V335.864z M178.642,335.111c3.169,0,5.957-2.359,6.7-6.029
					c0.197-0.753,0.255-1.589,0.255-2.483v-5.053c0-0.696-0.058-1.533-0.175-2.217c-0.709-3.323-3.18-6.029-6.722-6.029
					c-4.995,0-7.793,4.844-7.793,11.149C170.907,330.604,173.706,335.111,178.642,335.111z"/>
				
					<linearGradient id="SVGID_4_" gradientUnits="userSpaceOnUse" x1="195.3367" y1="12.1396" x2="241.3297" y2="12.1396" gradientTransform="matrix(1 0 0 -1 -47.6001 330.0098)">
					<stop  offset="0" style="stop-color:#E33594"/>
					<stop  offset="1" style="stop-color:#E33594"/>
				</linearGradient>
				<rect x="147.82" y="294.545" fill="url(#SVGID_4_)" width="8.502" height="46.65"/>
			</g>
		</g>
	</g>
	<g>
		<g id="XMLID_3_">
			<g>
				<path fill="#161A21" d="M270.633,153.528c-2.82,0-4.752,2-4.752,4.624c0,2.542,1.862,4.543,4.68,4.543
					c2.973,0,4.832-2,4.832-4.543C275.325,155.527,273.533,153.528,270.633,153.528z M266.365,167.512v33.554h8.542v-33.554H266.365
					L266.365,167.512z M198.565,229.236V128.665h103.621v100.571H198.565z M222.282,201.066h8.75l3.988-13.165h14.749l4.196,13.165
					h9.097l-15.084-46.43h-10.818L222.282,201.066z"/>
				
					<linearGradient id="SVGID_5_" gradientUnits="userSpaceOnUse" x1="269.0696" y1="145.7207" x2="322.2975" y2="145.7207" gradientTransform="matrix(1 0 0 -1 -47.6001 330.0098)">
					<stop  offset="0" style="stop-color:#FC9C0D"/>
					<stop  offset="1" style="stop-color:#FC9C0D"/>
				</linearGradient>
				<rect x="266.365" y="167.512" fill="url(#SVGID_5_)" width="8.542" height="33.554"/>
				
					<linearGradient id="SVGID_6_" gradientUnits="userSpaceOnUse" x1="269.0735" y1="171.9004" x2="322.2987" y2="171.9004" gradientTransform="matrix(1 0 0 -1 -47.6001 330.0098)">
					<stop  offset="0" style="stop-color:#FC9C0D"/>
					<stop  offset="1" style="stop-color:#FC9C0D"/>
				</linearGradient>
				<path fill="url(#SVGID_6_)" d="M265.881,158.15c0-2.625,1.93-4.624,4.752-4.624c2.9,0,4.692,1.999,4.76,4.624
					c0,2.542-1.86,4.543-4.832,4.543C267.743,162.693,265.881,160.693,265.881,158.15z"/>
				<path fill="#161A21" d="M248.324,181.499h-11.929l3.583-11.431c0.833-2.764,1.514-5.999,2.208-8.682h0.14
					c0.692,2.683,1.444,5.849,2.346,8.682L248.324,181.499z"/>
				
					<linearGradient id="SVGID_7_" gradientUnits="userSpaceOnUse" x1="269.0725" y1="152.1582" x2="322.2985" y2="152.1582" gradientTransform="matrix(1 0 0 -1 -47.6001 330.0098)">
					<stop  offset="0" style="stop-color:#FC9C0D"/>
					<stop  offset="1" style="stop-color:#FC9C0D"/>
				</linearGradient>
				<path fill="url(#SVGID_7_)" d="M236.396,181.499h11.929l-3.652-11.431c-0.901-2.833-1.653-5.999-2.346-8.682h-0.14
					c-0.694,2.683-1.375,5.918-2.208,8.682L236.396,181.499z M231.032,201.066h-8.75l14.877-46.43h10.818l15.084,46.43h-9.097
					l-4.196-13.165H235.02L231.032,201.066z"/>
			</g>
		</g>
	</g>
	<g>
		<g id="XMLID_1_">
			<g>
				
					<linearGradient id="SVGID_8_" gradientUnits="userSpaceOnUse" x1="113.1399" y1="144.3525" x2="166.2331" y2="144.3525" gradientTransform="matrix(1 0 0 -1 -47.6001 330.0098)">
					<stop  offset="0" style="stop-color:#73B4F4"/>
					<stop  offset="1" style="stop-color:#73B4F4"/>
				</linearGradient>
				<path fill="url(#SVGID_8_)" d="M116.109,176.604c-1.382-0.79-3.928-1.832-6.748-1.832c-2.865,0-4.432,1.371-4.432,3.336
					c0,2.019,1.503,3.006,5.552,4.443c5.76,2.096,8.438,5.037,8.504,9.744c0,5.75-4.511,10.008-12.96,10.008
					c-3.851,0-7.307-0.988-9.667-2.294l1.569-5.816c1.832,1.109,5.3,2.283,8.164,2.283c3.544,0,5.112-1.438,5.112-3.522
					c0-2.161-1.306-3.279-5.232-4.652c-6.211-2.151-8.823-5.552-8.768-9.283c0-5.618,4.652-10.007,12.037-10.007
					c3.534,0,6.606,0.921,8.438,1.898L116.109,176.604z"/>
				<path fill="#161A21" d="M140.412,228.439H42.032v-95.472h98.379V228.439z M91.65,180.522c2.491-2.349,3.796-5.816,3.796-10.008
					c0-4.114-1.7-7.583-4.323-9.744c-2.82-2.348-7.12-3.6-13.013-3.6c-5.421,0-9.415,0.395-12.3,0.921v43.483h7.988v-16.613
					c1.042,0.199,2.424,0.264,3.917,0.264C83.411,185.229,88.446,183.726,91.65,180.522z M109.36,174.772
					c2.821,0,5.366,1.042,6.748,1.832l1.57-5.696c-1.832-0.976-4.905-1.898-8.438-1.898c-7.384,0-12.037,4.389-12.037,10.008
					c-0.055,3.73,2.556,7.131,8.766,9.282c3.93,1.373,5.234,2.491,5.234,4.652c0,2.086-1.57,3.523-5.112,3.523
					c-2.865,0-6.332-1.174-8.164-2.284l-1.569,5.816c2.36,1.306,5.816,2.294,9.667,2.294c8.449,0,12.96-4.258,12.96-10.008
					c-0.067-4.707-2.745-7.648-8.505-9.744c-4.048-1.437-5.552-2.424-5.552-4.443C104.927,176.143,106.496,174.772,109.36,174.772z"
					/>
				<path fill="#161A21" d="M87.405,170.843c0,5.168-3.665,8.108-9.688,8.108c-1.623,0-2.928-0.065-3.917-0.329v-14.912
					c0.856-0.186,2.424-0.384,4.642-0.384C84.004,163.329,87.405,165.94,87.405,170.843z"/>
				
					<linearGradient id="SVGID_9_" gradientUnits="userSpaceOnUse" x1="113.1267" y1="150.6328" x2="166.2396" y2="150.6328" gradientTransform="matrix(1 0 0 -1 -47.6001 330.0098)">
					<stop  offset="0" style="stop-color:#73B4F4"/>
					<stop  offset="1" style="stop-color:#73B4F4"/>
				</linearGradient>
				<path fill="url(#SVGID_9_)" d="M77.715,178.952c6.024,0,9.688-2.94,9.688-8.108c0-4.905-3.4-7.516-8.965-7.516
					c-2.215,0-3.786,0.197-4.64,0.384v14.911C74.786,178.887,76.092,178.952,77.715,178.952z M95.447,170.516
					c0,4.191-1.306,7.658-3.796,10.007c-3.204,3.204-8.24,4.708-13.935,4.708c-1.492,0-2.874-0.065-3.917-0.264v16.613H65.81
					v-43.483c2.885-0.527,6.879-0.922,12.3-0.922c5.893,0,10.192,1.251,13.013,3.6C93.746,162.933,95.447,166.4,95.447,170.516z"/>
			</g>
		</g>
	</g>
</g>
<g id="Calque_3">
</g>
<g id="Calque_4">
</g>
</svg>
