<?xml version="1.0" encoding="utf-8"?>
<!-- Generator: Adobe Illustrator 16.0.0, SVG Export Plug-In . SVG Version: 6.00 Build 0)  -->
<!DOCTYPE svg PUBLIC "-//W3C//DTD SVG 1.1//EN" "http://www.w3.org/Graphics/SVG/1.1/DTD/svg11.dtd">
<svg version="1.1" id="Calque_1" xmlns="http://www.w3.org/2000/svg" xmlns:xlink="http://www.w3.org/1999/xlink" x="0px" y="0px"
	 width="210px" height="300px" viewBox="0 0 210 300" enable-background="new 0 0 210 300" xml:space="preserve">
<g>
	<g>
		<g id="XMLID_1_">
			<g>
				<path fill="#161A21" d="M159.532,22.783v12.17h-11.343l11.343,11.122V57.18h-28.4V46.075c0,0,8.065-0.011,11.275-0.011
					c-5.492-5.493-7.474-7.309-11.275-11.111c0-6.063,0-12.17,0-12.17H159.532z"/>
				<path fill="#161A21" d="M119.285,34.953h-11.348l11.348,11.122V57.18h-28.4V46.075c0,0,8.065-0.011,11.275-0.011
					c-5.492-5.493-7.473-7.309-11.275-11.111c0-6.063,0-12.17,0-12.17h28.4V34.953z"/>
				<polygon fill="#1D1D1B" points="104.943,216.652 104.943,216.658 104.707,216.725 104.696,216.725 				"/>
				<polygon fill="#161A21" points="104.943,216.658 104.943,216.652 104.943,179.879 132.598,179.967 130.818,209.377 				"/>
				<polygon fill="#2659A5" points="104.943,135.353 104.943,157.575 104.877,157.604 104.877,135.38 				"/>
				<polygon fill="#2659A5" points="104.943,134.08 107.999,134.08 104.943,135.353 				"/>
				
					<linearGradient id="SVGID_1_" gradientUnits="userSpaceOnUse" x1="247.2422" y1="-183.5459" x2="347.4344" y2="-183.5459" gradientTransform="matrix(1 0 0 -1 -192.5996 30.0098)">
					<stop  offset="0" style="stop-color:#EDEDEC"/>
					<stop  offset="1" style="stop-color:#FFFFFF"/>
				</linearGradient>
				<polygon fill="url(#SVGID_1_)" points="79.609,210.387 104.696,216.725 104.69,216.725 				"/>
				<polygon fill="#161A21" points="78.753,22.783 78.753,34.953 62.529,34.953 62.529,46.075 78.753,46.075 78.753,57.181 
					50.359,57.181 50.359,22.783 				"/>
				<polygon fill="#1D1D1B" points="57.805,227.374 104.943,241.311 104.943,241.316 57.728,227.374 54.683,192.137 54.765,192.137 
									"/>
				<polygon fill="#2659A5" points="53.239,179.682 53.239,179.715 53.157,179.715 				"/>
				<polygon fill="#2659A5" points="51.385,157.657 51.467,157.657 53.239,179.682 53.157,179.715 				"/>
				<path fill="#161A21" d="M12.96,73.526h183.972l-17.252,186.84l-74.737,20.126l-74.737-20.126L12.96,73.526z"/>
				
					<linearGradient id="SVGID_2_" gradientUnits="userSpaceOnUse" x1="-2231.7925" y1="-92.7891" x2="2667.2222" y2="-92.7891" gradientTransform="matrix(1 0 0 -1 -192.5996 30.0098)">
					<stop  offset="0" style="stop-color:#EDEDEC"/>
					<stop  offset="1" style="stop-color:#FFFFFF"/>
				</linearGradient>
				<polygon fill="url(#SVGID_2_)" points="46.567,111.518 49.36,134.08 49.355,134.08 				"/>
				<polygon fill="#2659A5" points="107.999,134.08 162.171,111.518 159.889,134.08 				"/>
				<polygon fill="#2659A5" points="104.943,216.658 104.943,241.311 57.805,227.374 54.765,192.137 78.084,192.137 79.609,210.387 
					104.69,216.725 104.696,216.725 104.707,216.725 				"/>
				<polygon fill="#2659A5" points="104.943,241.311 104.943,216.658 130.818,209.377 132.598,179.967 104.943,179.879 
					104.943,157.657 157.945,157.657 151.861,227.626 104.964,241.316 				"/>
				<polygon fill="#2659A5" points="104.943,157.575 104.943,135.353 107.999,134.08 159.889,134.08 				"/>
				<polygon fill="#2659A5" points="162.171,111.518 107.999,134.08 104.943,134.08 104.943,111.518 				"/>
				<polygon fill="#2659A5" points="104.943,111.518 104.943,134.08 49.36,134.08 46.567,111.518 				"/>
				<polygon fill="#2659A5" points="104.943,157.657 104.943,179.879 53.239,179.715 53.239,179.682 104.75,157.657 				"/>
				<polygon fill="#2659A5" points="51.467,157.657 104.75,157.657 53.239,179.682 				"/>
				<polygon fill="#2659A5" points="104.943,135.353 104.943,157.575 104.75,157.657 51.467,157.657 51.385,157.657 				"/>
			</g>
		</g>
	</g>
</g>
</svg>
