<?xml version="1.0" encoding="utf-8"?>
<!-- Generator: Adobe Illustrator 16.0.0, SVG Export Plug-In . SVG Version: 6.00 Build 0)  -->
<!DOCTYPE svg PUBLIC "-//W3C//DTD SVG 1.1//EN" "http://www.w3.org/Graphics/SVG/1.1/DTD/svg11.dtd">
<svg version="1.1" id="Calque_1" xmlns="http://www.w3.org/2000/svg" xmlns:xlink="http://www.w3.org/1999/xlink" x="0px" y="0px"
	 width="205px" height="205px" viewBox="0 0 205 205" enable-background="new 0 0 205 205" xml:space="preserve">
<g>
	<g id="XMLID_1_">
		<g>
			<path fill="#161A21" d="M156.42,61.46h15.54V33.43c-6.239-0.18-14.43-0.392-25.16-0.63c-38.76-0.852-37.34,39.05-37.34,39.05
				V94.8H82.811v29.95h26.649v77.75H11.8c-5.13,0-9.3-4.172-9.3-9.303V11.8c0-5.13,4.17-9.3,9.3-9.3h181.4c5.13,0,9.3,4.17,9.3,9.3
				v181.397c0,5.131-4.17,9.301-9.3,9.301h-52.72v-77.75h26.06l3.72-29.948H140.48V74.68C140.48,60.1,156.42,61.46,156.42,61.46z"/>
		</g>
	</g>
</g>
</svg>
