<?xml version="1.0" encoding="utf-8"?>
<!-- Generator: Adobe Illustrator 16.0.0, SVG Export Plug-In . SVG Version: 6.00 Build 0)  -->
<!DOCTYPE svg PUBLIC "-//W3C//DTD SVG 1.1//EN" "http://www.w3.org/Graphics/SVG/1.1/DTD/svg11.dtd">
<svg version="1.1" id="Layer_2" xmlns="http://www.w3.org/2000/svg" xmlns:xlink="http://www.w3.org/1999/xlink" x="0px" y="0px"
	 width="612px" height="792px" viewBox="0 0 612 792" enable-background="new 0 0 612 792" xml:space="preserve">
<g>
	<g id="XMLID_1_">
		<g>
			<path fill="#161A21" d="M359.92,354.96h15.54v-28.03c-6.239-0.18-14.43-0.391-25.16-0.63c-38.76-0.851-37.34,39.05-37.34,39.05
				v22.95h-26.65v29.95h26.65V496H215.3c-5.13,0-9.3-4.171-9.3-9.301V305.3c0-5.13,4.17-9.3,9.3-9.3h181.4c5.13,0,9.3,4.17,9.3,9.3
				v181.399c0,5.13-4.17,9.3-9.3,9.3h-52.72v-77.75h26.06l3.72-29.949H343.98v-20.12C343.98,353.6,359.92,354.96,359.92,354.96z"/>
		</g>
	</g>
</g>
</svg>
