<?xml version="1.0" encoding="utf-8"?>
<!-- Generator: Adobe Illustrator 16.0.0, SVG Export Plug-In . SVG Version: 6.00 Build 0)  -->
<!DOCTYPE svg PUBLIC "-//W3C//DTD SVG 1.1//EN" "http://www.w3.org/Graphics/SVG/1.1/DTD/svg11.dtd">
<svg version="1.1" id="Í_xBC__xB2_ã_x5F_1" xmlns="http://www.w3.org/2000/svg" xmlns:xlink="http://www.w3.org/1999/xlink"
	 x="0px" y="0px" width="595.279px" height="841.89px" viewBox="0 0 595.279 841.89" enable-background="new 0 0 595.279 841.89"
	 xml:space="preserve">
<g>
	<g id="XMLID_1_">
		<g>
			<path fill="#161A21" d="M554.189,228.587l-48.307,541.096l-217.127,60.184L72.252,769.757L24,228.587H554.189z"/>
			<polygon fill="#161A21" points="279.438,81.51 279.438,114.982 249.731,114.982 249.731,182.418 216.004,182.418 
				216.004,114.982 186.314,114.982 186.314,81.51 			"/>
			<polygon fill="#161A21" stroke="#161A21" stroke-miterlimit="10" points="289.085,473.539 201.259,473.539 195.194,405.573 
				289.085,405.573 			"/>
			<polygon fill="#161A21" points="505.791,149.074 505.791,182.418 424.615,182.418 424.615,81.51 458.361,81.51 458.361,149.074 
							"/>
			<polygon fill="#161A21" points="171.643,81.51 171.643,182.418 137.916,182.418 137.916,148.636 107.057,148.636 
				107.057,182.418 73.33,182.418 73.33,81.51 107.057,81.51 107.057,114.835 137.916,114.835 137.916,81.51 			"/>
			<polygon fill="#161A21" stroke="#161A21" stroke-miterlimit="10" points="289.085,645.921 289.085,539.916 370.699,539.916 
				362.989,626.005 289.085,645.976 			"/>
			<polygon fill="#161A21" points="407.825,81.51 407.825,182.418 374.244,182.418 374.244,132.412 351.04,168.295 350.456,168.295 
				327.234,132.412 327.234,182.418 294.219,182.418 294.219,81.51 329.39,81.51 351.04,116.973 372.636,81.51 			"/>
			<polygon fill="#E44D26" stroke="#E44D26" stroke-miterlimit="10" points="370.699,539.916 289.085,539.916 289.085,473.539 
				425.273,473.539 443.16,473.539 441.534,491.371 425.949,666.109 424.944,677.328 289.085,715.039 289.085,714.982 
				289.085,645.976 362.989,626.005 			"/>
			<polygon fill="#E44D26" stroke="#E44D26" stroke-miterlimit="10" points="289.085,539.916 140.565,539.916 124.25,357.01 
				122.66,339.197 288.866,339.197 288.866,339.197 289.085,405.573 195.194,405.573 201.259,473.539 289.085,473.539 			"/>
			<polygon fill="#E44D26" stroke="#E44D26" stroke-miterlimit="10" points="455.128,339.197 453.537,357.01 450.522,390.665 
				449.189,405.573 448.97,405.573 289.085,405.573 289.085,339.197 			"/>
			<polygon fill="#E44D26" stroke="#E44D26" stroke-miterlimit="10" points="289.085,645.921 289.085,645.976 289.085,714.982 
				288.793,715.074 152.825,677.328 143.525,573.113 174.237,573.113 210.157,573.113 214.889,626.042 288.793,646.011 			"/>
		</g>
	</g>
</g>
</svg>
