<?xml version="1.0" encoding="utf-8"?>
<!-- Generator: Adobe Illustrator 16.0.0, SVG Export Plug-In . SVG Version: 6.00 Build 0)  -->
<!DOCTYPE svg PUBLIC "-//W3C//DTD SVG 1.1//EN" "http://www.w3.org/Graphics/SVG/1.1/DTD/svg11.dtd">
<svg version="1.1" id="Layer_1" xmlns="http://www.w3.org/2000/svg" xmlns:xlink="http://www.w3.org/1999/xlink" x="0px" y="0px"
	 width="26px" height="26px" viewBox="0 0 26 26" enable-background="new 0 0 26 26" xml:space="preserve">
<g>
	<g id="XMLID_1_">
		<g>
			<path fill="#161A21" d="M15.57,15.66c-0.101,0.47-0.48,0.8-0.95,0.8c-0.69,0-1.14-0.57-1.14-1.47c0-0.84,0.39-1.52,1.15-1.52
				c0.51,0,0.87,0.37,0.97,0.82c0.011,0.09,0.021,0.21,0.021,0.3v0.69C15.62,15.42,15.61,15.54,15.57,15.66z"/>
			<path fill="#161A21" d="M10.76,17.66v-7.35H9.09v7.35H10.76z M14.08,17.78c0.689,0,1.33-0.311,1.67-0.91h0.02l0.08,0.79h1.471
				c-0.03-0.36-0.051-0.99-0.051-1.601V9.92H15.62v2.89H15.6c-0.239-0.37-0.75-0.6-1.409-0.6c-1.271,0-2.4,1.04-2.38,2.83
				C11.81,16.7,12.82,17.78,14.08,17.78z M21.17,6.9v13.9c0,0.561-0.46,1.01-1.02,1.01H6.26c-0.56,0-1.02-0.449-1.02-1.01V6.9
				c0-0.56,0.46-1.01,1.02-1.01H20.15C20.71,5.89,21.17,6.34,21.17,6.9z"/>
		</g>
		<g>
		</g>
	</g>
</g>
</svg>
