<?xml version="1.0" encoding="utf-8"?>
<!-- Generator: Adobe Illustrator 16.0.0, SVG Export Plug-In . SVG Version: 6.00 Build 0)  -->
<!DOCTYPE svg PUBLIC "-//W3C//DTD SVG 1.1//EN" "http://www.w3.org/Graphics/SVG/1.1/DTD/svg11.dtd">
<svg version="1.1" id="Layer_1" xmlns="http://www.w3.org/2000/svg" xmlns:xlink="http://www.w3.org/1999/xlink" x="0px" y="0px"
	 width="512px" height="512px" viewBox="0 0 512 512" enable-background="new 0 0 512 512" xml:space="preserve">
<g id="XMLID_1_">
	<g>
		<path fill="#161A21" d="M410.33,177.04c0,34.28-21.88,90.16-66.91,170.84c-31.84,57.061-63.16,104.64-64.479,106.64L256,489.29
			l-22.94-34.771c-1.32-2-32.64-49.579-64.49-106.64c-45.02-80.68-66.9-136.56-66.9-170.84c0-85.1,69.23-154.33,154.33-154.33
			C341.1,22.71,410.33,91.94,410.33,177.04z M336,176c0-44.18-35.82-80-80-80c-44.18,0-80,35.82-80,80s35.82,80,80,80
			C300.18,256,336,220.18,336,176z"/>
	</g>
	<g>
	</g>
</g>
</svg>
