<?xml version="1.0" encoding="utf-8"?>
<!-- Generator: Adobe Illustrator 16.0.0, SVG Export Plug-In . SVG Version: 6.00 Build 0)  -->
<!DOCTYPE svg PUBLIC "-//W3C//DTD SVG 1.1//EN" "http://www.w3.org/Graphics/SVG/1.1/DTD/svg11.dtd">
<svg version="1.1" id="Calque_1" xmlns="http://www.w3.org/2000/svg" xmlns:xlink="http://www.w3.org/1999/xlink" x="0px" y="0px"
	 width="205px" height="205px" viewBox="0 0 205 205" enable-background="new 0 0 205 205" xml:space="preserve">
<g>
	<g id="XMLID_1_">
		<g>
			<path fill="#161A21" d="M201.143,10.621c1.259,1.259,1.707,3.144,1.068,4.778l-59.679,163.438
				c-1.498,4.09-4.895,7.296-9.113,8.549c-4.213,1.326-8.8,0.571-12.319-2.076l-55.844-40.556L193.473,18.42l-2.579-6.667
				l5.472-2.075C198.06,9.049,199.89,9.427,201.143,10.621z"/>
			<path fill="#161A21" d="M190.894,11.754l2.579,6.667L48.46,132.49l-40.813-29.68c-3.709-2.705-5.659-7.295-5.03-11.824
				c0.565-4.591,3.648-8.487,7.986-10.124L190.894,11.754z"/>
			<path fill="#161A21" d="M38.776,142.365l48.296,34.587c0,0.816-14.149,10.059-25.093,17.103
				c-2.705,1.763-6.162,2.076-9.181,0.756s-5.155-4.022-5.724-7.229l-7.922-43.331L38.776,142.365z"/>
		</g>
	</g>
</g>
</svg>
