<?xml version="1.0" encoding="utf-8"?>
<!-- Generator: Adobe Illustrator 16.0.0, SVG Export Plug-In . SVG Version: 6.00 Build 0)  -->
<!DOCTYPE svg PUBLIC "-//W3C//DTD SVG 1.1//EN" "http://www.w3.org/Graphics/SVG/1.1/DTD/svg11.dtd">
<svg version="1.1" id="Layer_1" xmlns="http://www.w3.org/2000/svg" xmlns:xlink="http://www.w3.org/1999/xlink" x="0px" y="0px"
	 width="32px" height="32px" viewBox="0 0 32 32" enable-background="new 0 0 32 32" xml:space="preserve">
<g>
	<g id="XMLID_1_">
		<g>
			<path fill="#161A21" d="M31.59,0.5c0.2,0.2,0.271,0.5,0.17,0.76l-9.49,25.99c-0.239,0.65-0.779,1.16-1.449,1.36
				c-0.67,0.21-1.4,0.09-1.96-0.33l-8.88-6.45L30.37,1.74l-0.41-1.06l0.87-0.33C31.1,0.25,31.39,0.31,31.59,0.5z"/>
			<path fill="#161A21" d="M29.96,0.68l0.41,1.06L7.31,19.88l-6.49-4.72c-0.59-0.43-0.9-1.16-0.8-1.88
				c0.09-0.73,0.58-1.35,1.27-1.61L29.96,0.68z"/>
			<path fill="#161A21" d="M5.77,21.45l7.68,5.5c0,0.13-2.25,1.6-3.99,2.72C9.03,29.95,8.48,30,8,29.79s-0.82-0.64-0.91-1.15
				l-1.26-6.89L5.77,21.45z"/>
		</g>
		<g>
		</g>
	</g>
</g>
</svg>
