<?xml version="1.0" encoding="utf-8"?>
<!-- Generator: Adobe Illustrator 16.0.0, SVG Export Plug-In . SVG Version: 6.00 Build 0)  -->
<!DOCTYPE svg PUBLIC "-//W3C//DTD SVG 1.1//EN" "http://www.w3.org/Graphics/SVG/1.1/DTD/svg11.dtd">
<svg version="1.1" id="Layer_1" xmlns="http://www.w3.org/2000/svg" xmlns:xlink="http://www.w3.org/1999/xlink" x="0px" y="0px"
	 width="26px" height="26px" viewBox="0 0 26 26" enable-background="new 0 0 26 26" xml:space="preserve">
<g>
	<g id="XMLID_1_">
		<g>
			<path fill="#161A21" d="M21.86,5.11V20.44c0,0.59-0.48,1.069-1.07,1.069H5.46c-0.59,0-1.07-0.479-1.07-1.069V5.11
				c0-0.59,0.48-1.07,1.07-1.07h15.33C21.38,4.04,21.86,4.52,21.86,5.11z M13.28,12.66c0.57-0.54,0.89-1.34,0.89-2.28
				s-0.41-1.74-1.03-2.23c-0.64-0.51-1.6-0.77-2.94-0.77c-1.33,0-2.27,0.09-2.94,0.2v9.5h2.15v-3.45c0.2,0.03,0.46,0.05,0.75,0.05
				C11.44,13.68,12.54,13.36,13.28,12.66z M19.26,10.33c-0.43-0.21-1.16-0.4-1.97-0.4c-1.73,0-2.84,0.99-2.84,2.29
				c-0.021,0.83,0.54,1.61,1.979,2.1c0.82,0.27,1.03,0.439,1.03,0.8s-0.27,0.58-0.93,0.58c-0.641,0-1.471-0.28-1.87-0.521
				l-0.38,1.551c0.52,0.289,1.34,0.489,2.25,0.489c2,0,3.029-0.96,3.029-2.26c-0.01-1.03-0.569-1.7-1.899-2.15
				c-0.86-0.31-1.13-0.48-1.13-0.8c0-0.36,0.3-0.57,0.83-0.57c0.6,0,1.199,0.22,1.51,0.39L19.26,10.33z"/>
			<path fill="#161A21" d="M10.31,9.02c1.09,0,1.7,0.53,1.7,1.42c0,0.98-0.71,1.57-1.87,1.57c-0.31,0-0.54-0.02-0.72-0.06V9.11
				C9.57,9.06,9.87,9.02,10.31,9.02z"/>
		</g>
		<g>
		</g>
	</g>
</g>
</svg>
