<?xml version="1.0" encoding="utf-8"?>
<!-- Generator: Adobe Illustrator 16.0.0, SVG Export Plug-In . SVG Version: 6.00 Build 0)  -->
<!DOCTYPE svg PUBLIC "-//W3C//DTD SVG 1.1//EN" "http://www.w3.org/Graphics/SVG/1.1/DTD/svg11.dtd">
<svg version="1.1" id="Calque_1" xmlns="http://www.w3.org/2000/svg" xmlns:xlink="http://www.w3.org/1999/xlink" x="0px" y="0px"
	 width="205px" height="205px" viewBox="0 0 205 205" enable-background="new 0 0 205 205" xml:space="preserve">
<g>
	<g id="XMLID_1_">
		<g>
			<path fill="#161A21" d="M102.507,2.497c55.223,0,99.993,44.77,99.993,100s-44.77,100.007-99.993,100.007
				c-9.848,0-19.353-1.449-28.348-4.104c3.798-6.006,7.945-13.711,10.066-21.424c1.231-4.445,7.034-27.488,7.034-27.488
				c3.484,6.627,13.638,12.467,24.433,12.467c32.146,0,53.954-29.311,53.954-68.541c0-29.652-25.126-57.285-63.306-57.285
				c-47.511,0-71.471,34.062-71.471,62.468c0,17.202,6.509,32.503,20.482,38.21c2.289,0.934,4.337,0.029,5.008-2.506
				c0.452-1.75,1.552-6.182,2.034-8.027c0.67-2.508,0.416-3.383-1.436-5.568c-4.024-4.76-6.597-10.904-6.597-19.615
				c0-25.272,18.9-47.89,49.239-47.89c26.846,0,41.605,16.4,41.605,38.319c0,28.836-12.756,53.167-31.707,53.167
				c-10.461,0-18.289-8.652-15.782-19.258c2.996-12.668,8.827-26.342,8.827-35.49c0-8.178-4.388-15.008-13.484-15.008
				c-10.701,0-19.287,11.064-19.287,25.883c0,9.439,3.192,15.824,3.192,15.824s-10.941,46.375-12.865,54.486
				c-1.793,7.604-2.026,15.986-1.742,22.969C27.123,178.625,2.5,143.447,2.5,102.497C2.5,47.267,47.277,2.497,102.507,2.497z"/>
		</g>
	</g>
</g>
</svg>
