<?xml version="1.0" encoding="utf-8"?>
<!-- Generator: Adobe Illustrator 16.0.0, SVG Export Plug-In . SVG Version: 6.00 Build 0)  -->
<!DOCTYPE svg PUBLIC "-//W3C//DTD SVG 1.1//EN" "http://www.w3.org/Graphics/SVG/1.1/DTD/svg11.dtd">
<svg version="1.1" id="Logo" xmlns="http://www.w3.org/2000/svg" xmlns:xlink="http://www.w3.org/1999/xlink" x="0px" y="0px"
	 width="279.332px" height="281.333px" viewBox="0 0 279.332 281.333" enable-background="new 0 0 279.332 281.333"
	 xml:space="preserve">
<g>
	<g id="XMLID_1_">
		<g>
			<path fill="#161A21" d="M139.65,3.96c75.76,0,137.18,61.42,137.18,137.19s-61.42,137.2-137.18,137.2
				c-13.51,0-26.55-1.989-38.89-5.63c5.21-8.239,10.9-18.81,13.81-29.39c1.69-6.1,9.65-37.71,9.65-37.71
				c4.78,9.09,18.709,17.1,33.52,17.1c44.1,0,74.02-40.21,74.02-94.03c0-40.68-34.47-78.59-86.85-78.59
				c-65.18,0-98.05,46.73-98.05,85.7c0,23.601,8.93,44.59,28.1,52.42c3.14,1.28,5.95,0.04,6.87-3.439
				c0.62-2.4,2.13-8.48,2.79-11.011c0.92-3.439,0.57-4.64-1.97-7.64c-5.52-6.53-9.05-14.96-9.05-26.91
				c0-34.67,25.93-65.7,67.55-65.7c36.83,0,57.08,22.5,57.08,52.57c0,39.561-17.5,72.94-43.5,72.94
				c-14.351,0-25.09-11.87-21.65-26.42c4.11-17.38,12.11-36.14,12.11-48.69c0-11.22-6.021-20.59-18.5-20.59
				c-14.68,0-26.46,15.18-26.46,35.51c0,12.95,4.38,21.71,4.38,21.71S89.6,224.17,86.96,235.3c-2.46,10.431-2.78,21.931-2.39,31.51
				C36.23,245.59,2.45,197.33,2.45,141.15C2.45,65.38,63.88,3.96,139.65,3.96z"/>
		</g>
		<g>
		</g>
	</g>
</g>
</svg>
