<?xml version="1.0" encoding="utf-8"?>
<!-- Generator: Adobe Illustrator 16.0.0, SVG Export Plug-In . SVG Version: 6.00 Build 0)  -->
<!DOCTYPE svg PUBLIC "-//W3C//DTD SVG 1.1//EN" "http://www.w3.org/Graphics/SVG/1.1/DTD/svg11.dtd">
<svg version="1.1" id="Layer_1" xmlns="http://www.w3.org/2000/svg" xmlns:xlink="http://www.w3.org/1999/xlink" x="0px" y="0px"
	 width="841.89px" height="595.279px" viewBox="0 0 841.89 595.279" enable-background="new 0 0 841.89 595.279"
	 xml:space="preserve">
<g>
	<g id="XMLID_1_">
		<g>
			<path fill="#161A21" d="M522.065,234.91c-5.561,8.33-12.601,15.63-20.69,21.48c0.08,1.78,0.11,3.57,0.11,5.37
				c0,54.83-41.74,118.06-118.05,118.06c-23.44,0-45.25-6.87-63.61-18.64c3.24,0.38,6.55,0.58,9.9,0.58
				c19.44,0,37.32-6.64,51.53-17.76c-18.16-0.341-33.48-12.341-38.76-28.82c2.53,0.479,5.13,0.75,7.8,0.75
				c3.79,0,7.46-0.51,10.94-1.46c-18.98-3.811-33.29-20.58-33.29-40.69c0-0.17,0-0.35,0.01-0.52c5.59,3.11,11.99,4.97,18.79,5.19
				c-11.13-7.44-18.47-20.14-18.47-34.54c0-7.6,2.06-14.73,5.63-20.86c20.46,25.11,51.04,41.63,85.53,43.36
				c-0.71-3.04-1.08-6.21-1.08-9.46c0-22.91,18.57-41.49,41.49-41.49c11.939,0,22.72,5.04,30.29,13.1
				c9.439-1.86,18.329-5.31,26.35-10.07c-3.1,9.69-9.68,17.82-18.24,22.96C506.635,240.45,514.635,238.21,522.065,234.91z"/>
		</g>
		<g>
		</g>
	</g>
</g>
</svg>
